<?xml version="1.0" encoding="UTF-8" standalone="no"?>
<svg
   xmlns:dc="http://purl.org/dc/elements/1.1/"
   xmlns:cc="http://creativecommons.org/ns#"
   xmlns:rdf="http://www.w3.org/1999/02/22-rdf-syntax-ns#"
   xmlns:svg="http://www.w3.org/2000/svg"
   xmlns="http://www.w3.org/2000/svg"
   xmlns:sodipodi="http://sodipodi.sourceforge.net/DTD/sodipodi-0.dtd"
   xmlns:inkscape="http://www.inkscape.org/namespaces/inkscape"
   width="114"
   height="19"
   viewBox="0 0 114 19"
   version="1.1"
   id="svg4"
   sodipodi:docname="manningLettersBlack.svg"
   style="fill:none"
   inkscape:version="0.92.2 5c3e80d, 2017-08-06">
  <metadata
     id="metadata10">
    <rdf:RDF>
      <cc:Work
         rdf:about="">
        <dc:format>image/svg+xml</dc:format>
        <dc:type
           rdf:resource="http://purl.org/dc/dcmitype/StillImage" />
        <dc:title></dc:title>
      </cc:Work>
    </rdf:RDF>
  </metadata>
  <defs
     id="defs8" />
  <sodipodi:namedview
     pagecolor="#ffffff"
     bordercolor="#666666"
     borderopacity="1"
     objecttolerance="10"
     gridtolerance="10"
     guidetolerance="10"
     inkscape:pageopacity="0"
     inkscape:pageshadow="2"
     inkscape:window-width="640"
     inkscape:window-height="480"
     id="namedview6"
     showgrid="false"
     inkscape:zoom="3.5416827"
     inkscape:cx="41.691851"
     inkscape:cy="3.959065"
     inkscape:current-layer="svg4" />
  <path
     style="fill:#333333;fill-opacity:1"
     d="m 110.77,0 c -3.619,0 -5.429,3.15966 -5.429,9.4763 0,6.347 1.91,9.5237 5.738,9.5237 1.179,0 2.151,-0.2277 2.921,-0.6807 v -5.0772 c 0,-3.0788 -1.093,-4.61639 -3.28,-4.61639 -0.309,0 -0.606,0.02526 -0.896,0.07242 V 10.739 c 0.085,-0.0151 0.23,-0.0237 0.436,-0.0237 0.408,0 0.699,0.1371 0.869,0.4108 0.222,0.3419 0.334,0.9765 0.334,1.8961 v 3.8869 c -0.068,0.0169 -0.16,0.025 -0.282,0.025 -2.065,0 -3.098,-2.4877 -3.098,-7.4578 0,-4.9398 1.065,-7.40776 3.201,-7.40776 0.323,0 0.725,0.04836 1.204,0.14352 V 0.221204 C 111.943,0.0738372 111.369,-1.90021e-6 110.77,0 Z"
     id="path26"
     inkscape:connector-curvature="0" />
  <path
     style="fill:#333333;fill-opacity:1"
     d="M 0,0.12376 V 18.8749 H 2.61077 V 8.86929 L 4.35312,13.8003 H 5.52901 L 7.26999,8.86929 V 18.8749 H 9.9126 V 9.49934 0.123769 H 8.60375 L 4.93898,9.88974 1.30608,0.123769 Z"
     id="path24" />
  <path
     style="fill:#333333;fill-opacity:1"
     d="M 37.506721,0.123759 V 18.8749 h 2.6135 V 8.18988 l 4.4307,10.68502 h 1.3074 V 0.123769 h -2.6398 V 10.8852 l -4.4044,-10.761431 z"
     id="path22"
     inkscape:connector-curvature="0" />
  <path
     style="fill:#333333;fill-opacity:1"
     d="M 56.19352,0.123759 V 18.8749 h 2.6149 V 8.18988 l 4.4307,10.68502 h 1.3061 V 0.123769 h -2.6399 V 10.8852 L 57.50102,0.123769 Z"
     id="path20"
     inkscape:connector-curvature="0" />
  <path
     style="fill:#333333;fill-opacity:1"
     d="M 74.880417,0.123759 V 18.8749 h 2.7188 V 0.123769 Z"
     id="path18"
     inkscape:connector-curvature="0" />
  <path
     style="fill:#333333;fill-opacity:1"
     d="M 87.934418,0.123759 V 18.8749 h 2.6121 V 8.18988 l 4.4335,10.68502 h 1.306 V 0.123769 h -2.6398 V 10.8852 l -4.4058,-10.761431 z"
     id="path16"
     inkscape:connector-curvature="0" />
  <path
     style="fill:#333333;fill-opacity:1"
     d="m 22.403996,0.125 -2.998047,18.75 h 2.410156 l 0.460938,-3.326172 h 2.71289 L 25.478214,18.875 h 2.535157 L 25.01923,0.125 Z m 1.228515,5.5136719 1.078125,7.8437501 h -2.152343 z"
     id="path14"
     inkscape:connector-curvature="0" />
</svg>
